# xmcd CD database file
#
# Track frame offsets:
#	150
#	22038
#	42893
#	65581
#	81713
#	99940
#	125220
#	145090
#	161427
#	180362
#	198337
#	219850
#	240033
#	263981
#	284981
#	303948
#
# Disc length: 4428 seconds
#
# Revision: 1
# Processed by: cddbd v1.4PL0 Copyright (c) Steve Scherf et al.
# Submitted via: CDex 1.50
#
DISCID=e3114a10
DTITLE=Western Union - Die schönsten Balladen
DYEAR=1900
DGENRE=Country
TTITLE0=L.I.E.B.E.
TTITLE1=Das Lied allein für Dich
TTITLE2=Du das mag ich
TTITLE3=Eigentlich brauch ich nur Dich
TTITLE4=Berlin
TTITLE5=Tausend Feuer
TTITLE6=Drei Worte
TTITLE7=Der Mann im Spiegel
TTITLE8=Ich kann lieben, aber zeigen kann ich' s nicht
TTITLE9=Ich hab Dich
TTITLE10=Bunte Tränen
TTITLE11=Traktormann
TTITLE12=Wieder Zuhaus
TTITLE13=Eig' ne Wege gehen
TTITLE14=S.O.S.
TTITLE15=Abschied
EXTD=
EXTT0=
EXTT1=
EXTT2=
EXTT3=
EXTT4=
EXTT5=
EXTT6=
EXTT7=
EXTT8=
EXTT9=
EXTT10=
EXTT11=
EXTT12=
EXTT13=
EXTT14=
EXTT15=
PLAYORDER=
